<svg xmlns="http://www.w3.org/2000/svg" width="96" height="96" fill="none" viewBox="0 0 1200 1200"><defs><style>.cls-1{fill:#0076f7;transform: scale(0.85);transform-origin:center;}</style></defs><circle cx="600" cy="600" r="600" fill="#FFFFFF"/><g id="Layer_1" data-name="Layer 1"><path class="cls-1" d="M909.65,120H290.33A170.36,170.36,0,0,0,120,290.35V909.67A170.34,170.34,0,0,0,290.33,1080H909.65A170.36,170.36,0,0,0,1080,909.67V290.35A170.37,170.37,0,0,0,909.65,120ZM495.31,916.3A162.06,162.06,0,0,1,333.2,754.2V325h26.47L556.78,916.3ZM478.29,325H725.94L602.11,713.1ZM866.79,754.2a162,162,0,0,1-162,162.1H647.45L844.56,325h22.23Z"/></g></svg>